<?xml version="1.0"?>
<svg xmlns="http://www.w3.org/2000/svg" xmlns:xlink="http://www.w3.org/1999/xlink" version="1.1" id="Capa_1" x="0px" y="0px" viewBox="0 0 512.001 512.001" style="enable-background:new 0 0 512.001 512.001;" xml:space="preserve" width="512px" height="512px"><g><g>
	<g>
		<path d="M376,89.999c-5.258,0-10.305,0.915-15,2.58v-17.58c0-24.813-20.187-45-45-45c-5.857,0-11.449,1.136-16.586,3.181    C294.209,14.085,276.723,0,256,0s-38.209,14.085-43.414,33.181C207.451,31.136,201.858,30,196.001,30c-24.813,0-45,20.187-45,45    v57.58c-4.695-1.665-9.742-2.58-15-2.58c-24.813,0-45,20.187-45,45v109.999c0,34.324,10.355,67.019,30,94.886v82.596L256,512.001    l134.999-49.521v-82.596c19.645-27.867,30-60.562,30-94.886V134.999C420.999,110.186,400.812,89.999,376,89.999z M301,74.999    c0-8.271,6.729-15,15-15s15,6.729,15,15v15h-30V74.999z M301,119.999h30v89.999h-30V119.999z M241.001,45c0-8.271,6.729-15,15-15    s15,6.729,15,15v15h-30V45z M241.001,89.999h30v119.999h-30V89.999z M181.001,74.999c0-8.271,6.729-15,15-15    c8.271,0,15,6.729,15,15v15h-30V74.999z M181.001,119.999h30v89.999h-30V119.999z M121.002,174.999c0-8.271,6.729-15,15-15    s15,6.729,15,15v15h-30V174.999z M121.002,219.998h30v50h-30V219.998z M361,441.531L256,480.048l-104.999-38.518v-45.045    L256,435.004L361,396.486V441.531z M390.999,284.998c0,28.042-8.459,54.741-24.477,77.507L256,403.049l-110.522-40.544    c-13.133-18.667-21.17-39.979-23.64-62.508h59.163v-60h209.998V284.998z M390.999,209.998h-30v-30h30V209.998z M390.999,149.999    h-30v-15c0-8.271,6.729-15,15-15c8.271,0,15,6.729,15,15V149.999z" data-original="#000000" class="active-path" data-old_color="#000000" fill="#FFFFFF"/>
	</g>
</g><g>
	<g>
		<rect x="210.999" y="269.998" width="30" height="30" data-original="#000000" class="active-path" data-old_color="#000000" fill="#FFFFFF"/>
	</g>
</g><g>
	<g>
		<rect x="270.998" y="269.998" width="30" height="30" data-original="#000000" class="active-path" data-old_color="#000000" fill="#FFFFFF"/>
	</g>
</g><g>
	<g>
		<rect x="330.998" y="269.998" width="30" height="30" data-original="#000000" class="active-path" data-old_color="#000000" fill="#FFFFFF"/>
	</g>
</g></g> </svg>
