<?xml version="1.0"?>
<svg xmlns="http://www.w3.org/2000/svg" id="Layer_1" enable-background="new 0 0 512.027 512.027" height="512px" viewBox="0 0 512.027 512.027" width="512px" class=""><g><path d="m205.573 232h18.44c8.836 0 16-7.163 16-16s-7.164-16-16-16h-17.376c.467-16.384.811-32.703 1.034-48.874 10.415-23.242 8.342-39.174 8.342-79.126 0-39.701-32.299-72-72-72h-48c-39.701 0-72 32.299-72 72 0 40.287-2.003 56.043 8.344 79.13.227 16.261.573 32.556 1.04 48.87h-17.384c-8.836 0-16 7.163-16 16s7.164 16 16 16h18.45c.914 24.001 2.089 48.017 3.514 72h-21.964c-8.836 0-16 7.163-16 16s7.164 16 16 16h24.018c2.814 40.821 5.239 66.573 7.802 94.749l-15.343 61.37c-3.16 12.643 9.362 23.573 21.463 18.737 47.509-18.999 84.53-19.03 132.118 0 12.096 4.835 24.621-6.104 21.463-18.737l-15.343-61.37c2.738-30.086 5.05-54.88 7.804-94.749h24.016c8.836 0 16-7.163 16-16s-7.164-16-16-16h-21.961c1.635-27.428 2.653-49.066 3.523-72zm-149.56-160c0-22.056 17.944-40 40-40h48c22.056 0 40 17.944 40 40v40c0 35.29-28.71 64-64 64s-64-28.71-64-64zm14.627 399.463 5.866-23.463h11.507c8.836 0 16-7.163 16-16s-7.164-16-16-16h-9.39c-6.693-73.558-11.324-143.151-13.465-225.263 32.947 23.024 76.753 23.035 109.718-.005-2.135 82.106-6.75 151.377-13.473 225.268h-9.39c-8.836 0-16 7.163-16 16s7.164 16 16 16h11.507l5.866 23.463c-33.193-9.048-64.752-9.267-98.746 0z" data-original="#000000" class="active-path" data-old_color="#000000" fill="#FFFFFF"/><path d="m104.013 288h32c8.836 0 16-7.163 16-16s-7.164-16-16-16h-32c-8.836 0-16 7.163-16 16s7.164 16 16 16z" data-original="#000000" class="active-path" data-old_color="#000000" fill="#FFFFFF"/><path d="m152.013 344c0-8.837-7.164-16-16-16h-32c-8.836 0-16 7.163-16 16s7.164 16 16 16h32c8.837 0 16-7.163 16-16z" data-original="#000000" class="active-path" data-old_color="#000000" fill="#FFFFFF"/><path d="m376.013 288h32c8.837 0 16-7.163 16-16s-7.163-16-16-16h-32c-8.837 0-16 7.163-16 16s7.163 16 16 16z" data-original="#000000" class="active-path" data-old_color="#000000" fill="#FFFFFF"/><path d="m424.013 344c0-8.837-7.163-16-16-16h-32c-8.837 0-16 7.163-16 16s7.163 16 16 16h32c8.837 0 16-7.163 16-16z" data-original="#000000" class="active-path" data-old_color="#000000" fill="#FFFFFF"/><path d="m496.013 304h-21.963c1.632-27.382 2.653-49.06 3.523-72h18.441c8.837 0 16-7.163 16-16s-7.163-16-16-16h-17.376c.467-16.38.811-32.7 1.035-48.875 10.414-23.241 8.342-39.174 8.342-79.125 0-39.701-32.299-72-72-72h-48c-39.701 0-72 32.299-72 72 0 40.286-2.003 56.042 8.344 79.129.227 16.261.574 32.556 1.04 48.871h-17.384c-8.837 0-16 7.163-16 16s7.163 16 16 16h18.45c.914 24 2.089 48.016 3.514 72h-21.964c-8.837 0-16 7.163-16 16s7.163 16 16 16h24.017c2.814 40.82 5.239 66.575 7.802 94.75l-15.342 61.369c-3.159 12.638 9.357 23.577 21.464 18.737 47.507-18.999 84.531-19.03 132.117 0 12.103 4.838 24.624-6.094 21.464-18.737l-15.342-61.369c2.737-30.087 5.05-54.879 7.803-94.75h24.016c8.837 0 16-7.163 16-16s-7.164-16-16.001-16zm-168-232c0-22.056 17.944-40 40-40h48c22.056 0 40 17.944 40 40v40c0 35.29-28.71 64-64 64s-64-28.71-64-64zm14.627 399.463 5.866-23.463h11.507c8.837 0 16-7.163 16-16s-7.163-16-16-16h-9.389c-6.695-73.574-11.325-143.155-13.466-225.262 32.948 23.023 76.753 23.035 109.718-.005-2.133 82.022-6.742 151.283-13.473 225.268h-9.389c-8.837 0-16 7.163-16 16s7.163 16 16 16h11.507l5.866 23.463c-33.193-9.049-64.754-9.268-98.747-.001z" data-original="#000000" class="active-path" data-old_color="#000000" fill="#FFFFFF"/></g> </svg>
